# xmcd
#
# Track frame offsets:
#	150
#	17097
#	30287
#	48652
#	65212
#	83952
#	107520
#	125462
#	142452
#	161020
#	177970
#	191160
#	209527
#	226087
#	244825
#	268392
#	286335
#	303327
#	321894
#
# Disc length: 4532 seconds
#
# Revision: 2
# Processed by: cddbd v1.5.2PL0 Copyright (c) Steve Scherf et al.
# Submitted via: audiograbber 1.83.01
#
DISCID=2011b213
DTITLE=Various Artist - THC0303 
DYEAR=2003
DGENRE=Karaoke
TTITLE0=Rascal Flatts - These Days (vocals)
TTITLE1=Vince Gill - The Next Big Thing (vocals)
TTITLE2=Faith Hill - When The Lights Go Down (vocals)
TTITLE3=Tracy Byrd - Lately (Been Dreamin' Bout Babies) (vocals)
TTITLE4=Martina McBride - Concrete Angels (vocals)
TTITLE5=Tim McGraw - Tiny Dancer (vocals)
TTITLE6=Keith Urban - Rainin' On Sunday (vocals)
TTITLE7=Chris Cagle - What A Beautiful Day (vocals)
TTITLE8=Shania Twain - When You Kiss Me (vocals)
TTITLE9=Rascal Flatts - These Days
TTITLE10=Vince Gill - The Next Big Thing
TTITLE11=Faith Hill - When The Lights Go Down
TTITLE12=Tracy Byrd - Lately ( Been Dreamin' Bout Babies )
TTITLE13=Martina McBride - Concrete Angels
TTITLE14=Tim McGraw - Tiny Dancer
TTITLE15=Keith Urban - Rainin' On Sunday
TTITLE16=Chris Cagle - What A Beautiful Day
TTITLE17=Shania Twain - When You Kiss Me
TTITLE18=Rodney Atkins - My Old Man
EXTD=
EXTT0=
EXTT1=
EXTT2=
EXTT3=
EXTT4=
EXTT5=
EXTT6=
EXTT7=
EXTT8=
EXTT9=
EXTT10=
EXTT11=
EXTT12=
EXTT13=
EXTT14=
EXTT15=
EXTT16=
EXTT17=
EXTT18=
PLAYORDER=
